<svg xmlns="http://www.w3.org/2000/svg" viewBox="0 0 36 36"><defs><style>.cls-1{fill:none;}.cls-2{opacity:0.6;}.cls-3{fill:#00b1a9;}.cls-4{fill:#00b3ea;}.cls-5{fill:#343434;}.cls-6{fill:#fff;}</style></defs><title>ac_1</title><g id="Layer_2" data-name="Layer 2"><g id="Layer_1-2" data-name="Layer 1"><path class="cls-1" d="M0,0V36H36V0ZM32,22a.66.66,0,1,1,.66-.66A.65.65,0,0,1,32,22Zm-6.12-5.26a1.12,1.12,0,0,1,.1-.48,1.26,1.26,0,0,1,2.42.48,1.26,1.26,0,0,1-2.42.48A1.12,1.12,0,0,1,25.86,16.69Zm2.58,4.6a.66.66,0,1,1-.66-.65A.66.66,0,0,1,28.44,21.29Zm1.3-.65a.66.66,0,1,1-.66.65A.65.65,0,0,1,29.74,20.64Z"/><g class="cls-2"><path class="cls-3" d="M32.36,10.21H23.81a1.59,1.59,0,0,1,1.56,1.57V21.6a1.51,1.51,0,0,1-.44,1.08,1.38,1.38,0,0,1-.48.35,1.27,1.27,0,0,1-.48.13h8.39a1.84,1.84,0,0,0,1.84-1.84V12.05A1.84,1.84,0,0,0,32.36,10.21ZM32,22a.66.66,0,1,1,.66-.66A.65.65,0,0,1,32,22Zm-6-5.74a1.26,1.26,0,0,1,2.42.48,1.26,1.26,0,0,1-2.42.48,1.2,1.2,0,0,1,0-1Zm2.48,5.08a.66.66,0,1,1-.66-.65A.66.66,0,0,1,28.44,21.29Zm1.3-.65a.66.66,0,1,1-.66.65A.65.65,0,0,1,29.74,20.64Z"/></g><path class="cls-4" d="M3.64,23.17H3.37A1.57,1.57,0,0,1,1.8,21.6v-.27A1.85,1.85,0,0,0,3.64,23.17Z"/><path class="cls-4" d="M1.8,12.05v-.28a1.57,1.57,0,0,1,1.57-1.56h.27A1.84,1.84,0,0,0,1.8,12.05Z"/><g class="cls-2"><rect class="cls-3" x="1.8" y="16.69" width="23.57" height="1.31"/></g><path class="cls-5" d="M32.36,9.72H3.64a2.33,2.33,0,0,0-2.33,2.33v9.28a2.33,2.33,0,0,0,2.33,2.33H32.36a2.33,2.33,0,0,0,2.33-2.33V12.05A2.33,2.33,0,0,0,32.36,9.72Zm-28.72,13a1.35,1.35,0,0,1-1.35-1.35V12.05A1.36,1.36,0,0,1,3.64,10.7H32.36a1.36,1.36,0,0,1,1.35,1.35v9.28a1.35,1.35,0,0,1-1.35,1.35Z"/><path class="cls-5" d="M25.86,16.69a1.12,1.12,0,0,0,.1.48H1.8a.49.49,0,0,1,0-1H26A1.12,1.12,0,0,0,25.86,16.69Z"/><path class="cls-6" d="M27.12,14.94a1.74,1.74,0,0,0-1.67,1.26,1.57,1.57,0,0,0-.08.49.57.57,0,0,0,0,.13,1.15,1.15,0,0,0,.07.36,1.74,1.74,0,0,0,3.42-.49A1.75,1.75,0,0,0,27.12,14.94Zm0,3A1.26,1.26,0,0,1,26,17.17a1.2,1.2,0,0,1,0-1,1.26,1.26,0,0,1,2.42.48A1.25,1.25,0,0,1,27.12,18Z"/><path class="cls-5" d="M27.12,14.45a2.22,2.22,0,0,0-1.75.85,2,2,0,0,0-.43.9,2,2,0,0,0,0,1,2.12,2.12,0,0,0,.36.81,0,0,0,0,1,0,0l.06.08a2.24,2.24,0,0,0,4-1.39A2.24,2.24,0,0,0,27.12,14.45Zm0,3.5A1.26,1.26,0,0,1,26,17.17a1.2,1.2,0,0,1,0-1,1.26,1.26,0,0,1,2.42.48A1.25,1.25,0,0,1,27.12,18Z"/><g class="cls-2"><rect class="cls-3" x="17.71" y="20.73" width="6.26" height="2.43"/></g><path class="cls-5" d="M24,20.25H7a.49.49,0,0,0-.49.49v2.43a.49.49,0,0,0,.49.49H24a.49.49,0,0,0,.49-.49V20.74A.49.49,0,0,0,24,20.25Zm-16.49,1h16v1.45h-16Z"/><path class="cls-5" d="M9.7,29.82a.32.32,0,0,1-.33-.32.34.34,0,0,1,.09-.24c.39-.38.24-.87-.06-1.63s-.62-1.57.06-2.26a.34.34,0,0,1,.46,0,.32.32,0,0,1,0,.46c-.38.38-.21.83.08,1.56s.64,1.61-.08,2.33A.32.32,0,0,1,9.7,29.82Z"/><path class="cls-5" d="M12.58,29.82a.33.33,0,0,1-.33-.32.35.35,0,0,1,.1-.24c.39-.38.24-.87-.06-1.63s-.64-1.57.06-2.24a.33.33,0,0,1,.55.35.76.76,0,0,1-.09.09c-.39.38-.21.83.08,1.56s.64,1.61-.08,2.33A.33.33,0,0,1,12.58,29.82Z"/><path class="cls-5" d="M15.47,29.82a.32.32,0,0,1-.33-.32.31.31,0,0,1,.1-.24c.38-.38.23-.87-.07-1.63s-.62-1.57.07-2.26a.33.33,0,0,1,.46.46c-.39.38-.21.83.08,1.56s.63,1.61-.08,2.33A.34.34,0,0,1,15.47,29.82Z"/><path class="cls-5" d="M18.35,29.82A.32.32,0,0,1,18,29.5a.34.34,0,0,1,.09-.24c.39-.38.24-.87-.06-1.63s-.63-1.57.06-2.24a.33.33,0,0,1,.55.35.26.26,0,0,1-.09.09c-.38.38-.21.83.08,1.56s.64,1.61-.08,2.33A.33.33,0,0,1,18.35,29.82Z"/><path class="cls-5" d="M21.24,29.82a.33.33,0,0,1-.33-.32.35.35,0,0,1,.1-.24c.38-.38.23-.87-.07-1.63s-.62-1.57.07-2.26a.33.33,0,0,1,.46.46c-.39.38-.21.83.08,1.56s.64,1.61-.08,2.33A.33.33,0,0,1,21.24,29.82Z"/></g></g></svg>