<svg xmlns="http://www.w3.org/2000/svg" viewBox="0 0 36 36"><defs><style>.cls-1{fill:none;}.cls-2{opacity:0.6;}.cls-3{fill:#00b1a9;}.cls-4{fill:#343434;}</style></defs><title>almirah_1</title><g id="Layer_2" data-name="Layer 2"><g id="Layer_1-2" data-name="Layer 1"><rect class="cls-1" width="36" height="36"/><g class="cls-2"><path class="cls-3" d="M10.88,3.41V32.25H7.22a1.38,1.38,0,0,1-.46-1V4.78A1.37,1.37,0,0,1,8.13,3.41Z"/></g><path class="cls-4" d="M27.86,2.93H8.12A1.86,1.86,0,0,0,6.26,4.79V31.23a1.86,1.86,0,0,0,.63,1.4,1.91,1.91,0,0,0,1.23.46H27.86a1.87,1.87,0,0,0,1.87-1.86V4.79A1.87,1.87,0,0,0,27.86,2.93Zm.88,28.3a.88.88,0,0,1-.88.88H8.12a.87.87,0,0,1-.58-.22.89.89,0,0,1-.3-.66V4.79a.88.88,0,0,1,.88-.88H27.86a.88.88,0,0,1,.88.88Z"/><path class="cls-4" d="M18,33.08a.49.49,0,0,1-.49-.49V3.41a.49.49,0,1,1,1,0V32.59A.49.49,0,0,1,18,33.08Z"/><g class="cls-2"><rect class="cls-3" x="19.82" y="6.24" width="7.78" height="15.99"/></g><g class="cls-2"><circle class="cls-3" cx="15.8" cy="17.26" r="1.17"/></g></g></g></svg>