<svg xmlns="http://www.w3.org/2000/svg" viewBox="0 0 36 36"><defs><style>.cls-1{fill:none;}.cls-2{opacity:0.6;}.cls-3{fill:#00b1a9;}.cls-4{fill:#343434;}.cls-5{fill:#00b3ea;}</style></defs><title>bathroom</title><g id="Layer_2" data-name="Layer 2"><g id="Layer_1-2" data-name="Layer 1"><rect class="cls-1" width="36" height="36"/><line class="cls-1" x1="9.07" y1="30.26" x2="8.45" y2="32.55"/><line class="cls-1" x1="26.67" y1="30.38" x2="27.85" y2="32.44"/><g class="cls-2"><rect class="cls-3" x="3.07" y="17.38" width="24.19" height="2.72" rx="1.36"/></g><line class="cls-1" x1="9.07" y1="30.26" x2="8.45" y2="32.55"/><line class="cls-1" x1="26.67" y1="30.38" x2="27.85" y2="32.44"/><path class="cls-4" d="M31.56,16.89H4.43a1.85,1.85,0,0,0-1.85,1.85,1.83,1.83,0,0,0,1.35,1.77,1.42,1.42,0,0,0,.5.08H31.56a1.58,1.58,0,0,0,.61-.12,1.82,1.82,0,0,0,1.24-1.73A1.85,1.85,0,0,0,31.56,16.89Zm0,2.72H4.43a.87.87,0,1,1,0-1.73H31.56a.87.87,0,1,1,0,1.73Z"/><path class="cls-4" d="M31.68,19.61H4.43a.5.5,0,0,0-.49.39.34.34,0,0,0,0,.1v3.52a7.12,7.12,0,0,0,4.62,6.67h0a3.61,3.61,0,0,0,.46.17,2.47,2.47,0,0,0,.47.11h0a6.31,6.31,0,0,0,1.57.19H25a6.06,6.06,0,0,0,1.21-.12,2.11,2.11,0,0,0,.5-.1h0a2.52,2.52,0,0,0,.47-.13h0a7.16,7.16,0,0,0,4.92-6.79V20.1A.49.49,0,0,0,31.68,19.61Zm-.49,4A6.16,6.16,0,0,1,25,29.77h-14a6.15,6.15,0,0,1-6.15-6.15v-3H31.19Z"/><path class="cls-4" d="M8.45,33a.32.32,0,0,1-.13,0,.49.49,0,0,1-.34-.6l.62-2.29a.49.49,0,0,1,1,.26l-.63,2.29A.47.47,0,0,1,8.45,33Z"/><path class="cls-4" d="M27.85,32.93a.5.5,0,0,1-.43-.25l-1.18-2.06a.49.49,0,0,1,.86-.49l1.18,2.06a.49.49,0,0,1-.19.67A.42.42,0,0,1,27.85,32.93Z"/><path class="cls-4" d="M12.1,17.87H5.6a.49.49,0,0,1-.49-.49V7.1A3.75,3.75,0,0,1,8.85,3.35a3.71,3.71,0,0,1,2.62,1.07.5.5,0,0,1,0,.7.49.49,0,0,1-.69,0,2.72,2.72,0,0,0-1.93-.78A2.77,2.77,0,0,0,6.09,7.1v9.79h6a.49.49,0,0,1,0,1Z"/><g class="cls-2"><path class="cls-3" d="M14,5.73l-1.45,1a.68.68,0,0,0,.15-1l-.63-.89a.69.69,0,0,0-1-.16l1.46-1a.81.81,0,0,1,1.13.19l.49.7A.8.8,0,0,1,14,5.73Z"/></g><path class="cls-5" d="M9,6.31l.1-.07a.8.8,0,0,0-.2,1.11l-.06-.09A.67.67,0,0,1,9,6.31Z"/><path class="cls-5" d="M10.49,8.25l-.09.06a.69.69,0,0,1-1-.16l-.07-.09A.81.81,0,0,0,10.49,8.25Z"/><path class="cls-4" d="M14.61,4.33l-.49-.7a1.31,1.31,0,0,0-.84-.53,1.29,1.29,0,0,0-1,.22l-1.16.83h0l-.83.6h0L8.77,5.84a1.29,1.29,0,0,0-.3,1.81L9,8.34a1.29,1.29,0,0,0,1.81.31l3.54-2.52A1.28,1.28,0,0,0,14.61,4.33ZM10.2,7.85a.32.32,0,0,1-.44-.07l-.49-.7a.32.32,0,0,1,.07-.44l2-1.41.16-.11L12,4.78h0l.92-.65a.37.37,0,0,1,.18,0h0a.3.3,0,0,1,.21.13l.49.7a.31.31,0,0,1-.07.43L12.82,6h0Z"/><path class="cls-4" d="M11.76,12.05a.49.49,0,0,1-.48-.39l-.42-1.93a.49.49,0,1,1,1-.21l.42,1.93a.49.49,0,0,1-.37.59Z"/><path class="cls-4" d="M14.66,10.43a.52.52,0,0,1-.42-.22L13.15,8.55a.51.51,0,0,1,.14-.68A.49.49,0,0,1,14,8l1.09,1.65a.49.49,0,0,1-.13.68A.48.48,0,0,1,14.66,10.43Z"/><path class="cls-4" d="M17.11,8.53a.52.52,0,0,1-.29-.09l-1.6-1.17a.49.49,0,0,1,.58-.79l1.6,1.16a.5.5,0,0,1,.11.69A.51.51,0,0,1,17.11,8.53Z"/><g class="cls-2"><circle class="cls-3" cx="19.41" cy="14.19" r="1.75"/></g><g class="cls-2"><circle class="cls-3" cx="22.8" cy="12.44" r="1.07"/></g><circle class="cls-3" cx="23.86" cy="15.54" r="1.07"/></g></g></svg>