<svg xmlns="http://www.w3.org/2000/svg" viewBox="0 0 36 36"><defs><style>.cls-1{fill:none;}.cls-2{opacity:0.6;}.cls-3{fill:#00b1a9;}.cls-4{fill:#343434;}</style></defs><title>bedsheet_1</title><g id="Layer_2" data-name="Layer 2"><g id="Layer_1-2" data-name="Layer 1"><rect class="cls-1" width="36" height="36"/><g class="cls-2"><path class="cls-3" d="M33.12,16.59,20.54,29,7.38,29c-4.68-1.05-4.57-5.05-4.57-5.05a6,6,0,0,1,.34-2.15v0a5.22,5.22,0,0,1,1.08-1.58L4.48,20A5.2,5.2,0,0,1,7,18.73h0a5,5,0,0,1,.87-.07H12.8l4.81-.07c3.87.52,2.9,4.62,2.86,4.81h0a3.44,3.44,0,0,1-2.83,1.7h-9a.93.93,0,0,1-1-.9,1,1,0,0,1,1-1l8.88-.08a1.18,1.18,0,0,0,1.24-1.18,1.24,1.24,0,0,0-1.13-1.41l-9-.05a3.36,3.36,0,0,0-3.68,2.77,3.41,3.41,0,0,0,3,3.81H19.93l11.9-12C33.65,15.08,33.12,16.59,33.12,16.59Z"/></g><path class="cls-4" d="M31.83,15.59a.32.32,0,0,1-.14,0l-2.42-.73h0a.51.51,0,0,1-.28-.65.48.48,0,0,1,.63-.27l2.39.72a.5.5,0,0,1,.33.62A.49.49,0,0,1,31.83,15.59Z"/><path class="cls-4" d="M33.42,15.25a1.79,1.79,0,0,0-1.48-.63h-.12a.48.48,0,0,0-.34.14l-.57.57h0L19.73,26.56h-12a2.87,2.87,0,0,1-2.5-3.25A2.83,2.83,0,0,1,8.35,21h.08l9,.06c.23,0,.71.16.67.9a.7.7,0,0,1-.76.71l-8.9.08A1.47,1.47,0,0,0,7,24.2a1.41,1.41,0,0,0,1.55,1.39h9a3.93,3.93,0,0,0,3.2-1.85l0,0,0-.08a.42.42,0,0,0,0-.1,6.1,6.1,0,0,0,.15-1.45,4.45,4.45,0,0,0-.68-2.43,3.73,3.73,0,0,0-2.74-1.53H17.6l-4.81.06H7.92a4.67,4.67,0,0,0-.91.08H7l-.08,0h0a5.52,5.52,0,0,0-2.71,1.32l0,0h0l-.23.22a5.54,5.54,0,0,0-1.18,1.73l0,.05a6.41,6.41,0,0,0-.37,2.3,5.82,5.82,0,0,0,5,5.54h.1l13.17.06a.48.48,0,0,0,.34-.14L33.46,16.94a.39.39,0,0,0,.12-.19A1.74,1.74,0,0,0,33.42,15.25Zm-26,13.24c-4.13-1-4.14-4.37-4.14-4.57v-.09A5.56,5.56,0,0,1,3.6,22a5,5,0,0,1,1-1.43l.22-.2,0,0,0,0a4.71,4.71,0,0,1,2.24-1.06h0a4.19,4.19,0,0,1,.78-.07H12.8l4.77-.06a2.79,2.79,0,0,1,2,1.11,4.27,4.27,0,0,1,.4,3,2.94,2.94,0,0,1-2.33,1.41H8.58c-.36,0-.54-.13-.55-.41a.47.47,0,0,1,.46-.51l8.89-.08A1.67,1.67,0,0,0,19.1,22,1.71,1.71,0,0,0,17.48,20l-9-.06h-.1a3.8,3.8,0,0,0-.68,7.56H19.93a.51.51,0,0,0,.35-.15L32,15.6a.78.78,0,0,1,.6.23.73.73,0,0,1,.06.5L20.34,28.55Z"/><path class="cls-4" d="M20.47,23.89a.52.52,0,0,1-.35-.14.5.5,0,0,1,0-.7L31.37,11.69a2.15,2.15,0,0,0,.39-2.81C31.06,7.52,29,7.46,29,7.46l-11.27,0L4.83,20.3a.47.47,0,0,1-.69,0,.49.49,0,0,1,0-.69l13-13a.48.48,0,0,1,.34-.14L29,6.48c.12,0,2.69.07,3.66,1.95a3.15,3.15,0,0,1-.58,4L20.82,23.74A.5.5,0,0,1,20.47,23.89Z"/></g></g></svg>