<svg xmlns="http://www.w3.org/2000/svg" viewBox="0 0 36 36"><defs><style>.cls-1{opacity:0.6;}.cls-2{fill:#00b1a9;}.cls-3{fill:none;}.cls-4{fill:#343434;}</style></defs><title>cctv_1</title><g id="Layer_2" data-name="Layer 2"><g id="Layer_1-2" data-name="Layer 1"><g class="cls-1"><circle class="cls-2" cx="16.96" cy="11.24" r="1.09"/></g><rect class="cls-3" width="36" height="36"/><g class="cls-1"><rect class="cls-2" x="3.28" y="6.82" width="3.4" height="7.45"/></g><path class="cls-4" d="M2.78,6.33V30H7.17V6.33ZM6.19,29.05H3.77V7.32H6.19Z"/><g class="cls-1"><polygon class="cls-2" points="30.79 17.87 31.12 18.21 32.45 19.54 28.41 23.59 27.07 22.25 25.72 20.91 25.97 20.66 30.79 17.87"/></g><g class="cls-1"><polygon class="cls-2" points="32.34 16.97 30.79 17.87 29.03 18.89 16.98 6.84 16.96 6.82 19.57 4.2 19.59 4.23 32.34 16.97"/></g><path class="cls-4" d="M20,3.86l-.4-.35-.33.39-6.86,6.86L18,16.4l6,6,1.58-.92h0L26,21.2h0l.42-.26h0l4.24-2.45h0l.42-.26h0l.43-.25h0l1-.57.6-.33Zm-6.2,6.9,3.57-3.57L19.61,4.9l12,12-2.88,1.68h0l-4.52,2.61Z"/><polygon class="cls-4" points="28.41 24.28 25.03 20.91 25.62 20.31 25.97 20.66 26.07 20.56 28.41 22.9 31.76 19.54 30.44 18.22 31.13 17.53 33.15 19.54 28.41 24.28"/><path class="cls-4" d="M10.16,20.34a8.35,8.35,0,0,1-3.72-.84l.49-.86c.22.13,5.39,2.95,10.7-3.28l.74.64C15.41,19.47,12.41,20.34,10.16,20.34Z"/></g></g></svg>