<svg xmlns="http://www.w3.org/2000/svg" viewBox="0 0 36 36"><defs><style>.cls-1{fill:none;}.cls-2{opacity:0.6;}.cls-3{fill:#00b1a9;}.cls-4{fill:#343434;}.cls-5{fill:#fff;}</style></defs><title>drinking water_1</title><g id="Layer_2" data-name="Layer 2"><g id="Layer_1-2" data-name="Layer 1"><rect class="cls-1" width="36" height="36"/><g class="cls-2"><path class="cls-3" d="M28,8.21V21.38a2.28,2.28,0,0,1-2.29,2.29H22.61a.81.81,0,0,0,.58-.24.84.84,0,0,0,.25-.59.83.83,0,0,0-.83-.83H11.8a1.62,1.62,0,0,1-1.12-.46,1.61,1.61,0,0,1-.46-1.12,1.58,1.58,0,0,1,1.58-1.58h11a.62.62,0,0,0,.61-.61.61.61,0,0,0-.61-.61H11.75a1.53,1.53,0,0,1,0-3.06H22.68a.76.76,0,0,0,.54-.23.76.76,0,0,0-.54-1.29H11.44a1.22,1.22,0,0,1-1.22-1.22V9.57c2,.61,5.11,1.1,7.79-.29C22.53,6.92,28,8.21,28,8.21Z"/></g><path class="cls-4" d="M8.51,8.41h0l0,0,.08,0Zm0,0h0l0,0,.08,0Zm0,0h0l0,0,.08,0Zm0,0h0l0,0,.08,0Zm0,0h0l0,0,.08,0Zm0,0h0l0,0,.08,0Zm0,0h0l0,0,.08,0Zm0,0h0l0,0,.08,0Zm0,0h0l0,0,.08,0Zm0,0h0l0,0,.08,0Zm0,0h0l0,0,.08,0Zm0,0h0l0,0,.08,0Zm0,0h0l0,0,.08,0Zm0,0h0l0,0,.08,0ZM25.72,3.16H10.28A2.79,2.79,0,0,0,7.49,5.94V21.38a2.79,2.79,0,0,0,2.79,2.79v-1a1.81,1.81,0,0,1-1.8-1.81V9.48l.15.07.06,0,.5.19c.17.06.35.13.55.18s.29.1.45.15h0l.21.06a16.63,16.63,0,0,0,1.85.39l.61.07a10.79,10.79,0,0,0,1.15.06l.78,0,.79-.09a8.6,8.6,0,0,0,2.15-.62,4.81,4.81,0,0,0,.46-.22l.13-.07h0a2.48,2.48,0,0,1,.37-.17s0,0,0,0l.34-.15a2.48,2.48,0,0,1,.35-.13L19.91,9a3.66,3.66,0,0,1,.44-.13l.27-.07h0a5.66,5.66,0,0,1,.56-.13l.23,0h0l.26-.05a8.34,8.34,0,0,1,1-.13c.22,0,.41,0,.62,0l.75,0h1.45l.2,0c.8,0,1.43.15,1.81.21V21.38a1.81,1.81,0,0,1-1.8,1.81v1a2.79,2.79,0,0,0,2.79-2.79V5.94A2.79,2.79,0,0,0,25.72,3.16ZM10,9a2.8,2.8,0,0,1-.38-.13L9,8.64l-.44-.19-.07,0h0V5.94a1.81,1.81,0,0,1,1.8-1.8H25.72a1.81,1.81,0,0,1,1.8,1.8V7.61l-.29-.05h-.11l-.5-.06-.38,0h0l-.32,0h-.06l-.47,0h-.4A17.7,17.7,0,0,0,22,7.53l-.64.1-.49.1-.33.08L20,8l-.66.21-.65.25c-.29.12-.58.25-.86.4l-.45.21a3.07,3.07,0,0,1-.42.17,8.62,8.62,0,0,1-1,.27l-.3.07h0l-.14,0L15,9.64h0l-.22,0-.57,0h-.15c-.23,0-.47,0-.69,0l-.43,0h0a9.31,9.31,0,0,1-1.23-.19l-.31-.07-.2,0C10.74,9.22,10.35,9.11,10,9ZM8.51,8.41h0l0,0,.08,0Zm0,0h0l0,0,.08,0Zm0,0h0l0,0,.08,0Zm0,0h0l0,0,.08,0Zm0,0h0l0,0,.08,0Zm0,0h0l0,0,.08,0Zm0,0h0l0,0,.08,0Zm0,0h0l0,0,.08,0Zm0,0h0l0,0,.08,0Zm0,0h0l0,0,.08,0Zm0,0h0l0,0,.08,0Zm0,0h0l0,0,.08,0Zm0,0h0l0,0,.08,0Zm0,0h0l0,0,.08,0Zm0,0h0l0,0,.08,0Z"/><path class="cls-4" d="M28.13,7.73l-.61-.12-.29-.05h-.11l-.5-.06-.38,0h0l-.32,0h-.06l-.47,0h-.4A17.7,17.7,0,0,0,22,7.53l-.64.1-.49.1-.33.08L20,8l-.66.21-.65.25c-.29.12-.58.25-.86.4l-.45.21a3.07,3.07,0,0,1-.42.17,8.62,8.62,0,0,1-1,.27l-.3.07h0l-.14,0L15,9.64h0l-.22,0-.57,0h-.15c-.23,0-.47,0-.69,0l-.43,0h0a9.31,9.31,0,0,1-1.23-.19l-.31-.07-.2,0c-.42-.1-.81-.21-1.16-.33a2.8,2.8,0,0,1-.38-.13L9,8.64l-.44-.19-.08,0,0,0-.07,0-.06,0-.14-.07-.72-.37V21.38a2.79,2.79,0,0,0,2.79,2.79H25.72a2.79,2.79,0,0,0,2.79-2.79V7.82ZM10.28,23.19a1.81,1.81,0,0,1-1.8-1.81V9.48l.15.07.06,0,.5.19c.17.06.35.13.55.18s.29.1.45.15h0l.21.06a16.63,16.63,0,0,0,1.85.39l.61.07a10.79,10.79,0,0,0,1.15.06l.78,0,.79-.09a8.6,8.6,0,0,0,2.15-.62,4.81,4.81,0,0,0,.46-.22l.13-.07h0a2.48,2.48,0,0,1,.37-.17s0,0,0,0l.34-.15a2.48,2.48,0,0,1,.35-.13L19.91,9a3.66,3.66,0,0,1,.44-.13l.27-.07h0a5.66,5.66,0,0,1,.56-.13l.23,0h0l.26-.05a8.34,8.34,0,0,1,1-.13l.66-.06h.12l.64,0h1.4l.2,0c.8,0,1.43.15,1.81.21V21.38a1.81,1.81,0,0,1-1.8,1.81Z"/><g class="cls-2"><path class="cls-3" d="M24.33,23.67v4.38a1.78,1.78,0,0,1-1.78,1.78h-9.1a1.78,1.78,0,0,1-1.63-1.06l-.15-.72,10-.12V23.67Z"/></g><path class="cls-4" d="M11.18,23.19v4.86a2.27,2.27,0,0,0,2.27,2.27h9.1a2.26,2.26,0,0,0,2.27-2.27V23.19Zm12.66,1v3.88a1.29,1.29,0,0,1-1.29,1.29h-9.1a1.29,1.29,0,0,1-1.29-1.29V24.17Z"/><circle class="cls-5" cx="18" cy="28.46" r="2.59"/><path class="cls-4" d="M21,27.94A3.07,3.07,0,0,0,15,28a2.22,2.22,0,0,0,0,.45,2.89,2.89,0,0,0,.13.88,2.92,2.92,0,0,0,.19.49,2.53,2.53,0,0,0,.31.49,3.05,3.05,0,0,0,2.12,1.21h0l.32,0a2.88,2.88,0,0,0,.59-.06h0a3.07,3.07,0,0,0,2.16-1.66,2.92,2.92,0,0,0,.19-.49,2.89,2.89,0,0,0,.13-.88A2.24,2.24,0,0,0,21,27.94Zm-.93.52a2,2,0,0,1-.2.88,2,2,0,0,1-.32.49,1.85,1.85,0,0,1-.62.49,2,2,0,0,1-1.92,0,1.85,1.85,0,0,1-.62-.49,2,2,0,0,1-.32-.49,2,2,0,0,1-.2-.88A2.31,2.31,0,0,1,16,28,2.1,2.1,0,0,1,20,28,1.7,1.7,0,0,1,20.1,28.46Z"/><path class="cls-4" d="M14.05,10.68A15.3,15.3,0,0,1,7.76,9.15l.45-.88s5.4,2.74,9.56.57C22.41,6.43,27.9,7.67,28.13,7.73l-.23.95s-5.36-1.21-9.67,1A9,9,0,0,1,14.05,10.68Z"/><path class="cls-4" d="M17.67,31h.92a0,0,0,0,1,0,0v1.36a.46.46,0,0,1-.46.46h0a.46.46,0,0,1-.46-.46V31a0,0,0,0,1,0,0Z"/><g class="cls-2"><circle class="cls-3" cx="18" cy="28.46" r="1.09"/></g></g></g></svg>