<svg xmlns="http://www.w3.org/2000/svg" viewBox="0 0 36 36"><defs><style>.cls-1{fill:none;}.cls-2{opacity:0.6;}.cls-3{fill:#00b1a9;}.cls-4{fill:#fff;}.cls-5{fill:#343434;}</style></defs><title>fridge_1</title><g id="Layer_2" data-name="Layer 2"><g id="Layer_1-2" data-name="Layer 1"><path class="cls-1" d="M10.35,17v3.65a.49.49,0,1,1-1,0V17a.49.49,0,0,1,1,0Z"/><path class="cls-1" d="M9.86,6.57a.49.49,0,0,0-.49.49v3.65a.49.49,0,0,0,1,0V7.06A.49.49,0,0,0,9.86,6.57Zm0,0a.49.49,0,0,0-.49.49v3.65a.49.49,0,0,0,1,0V7.06A.49.49,0,0,0,9.86,6.57Zm0,0a.49.49,0,0,0-.49.49v3.65a.49.49,0,0,0,1,0V7.06A.49.49,0,0,0,9.86,6.57Zm0,0a.49.49,0,0,0-.49.49v3.65a.49.49,0,0,0,1,0V7.06A.49.49,0,0,0,9.86,6.57Zm0,0a.49.49,0,0,0-.49.49v3.65a.49.49,0,0,0,1,0V7.06A.49.49,0,0,0,9.86,6.57Zm0,0a.49.49,0,0,0-.49.49v3.65a.49.49,0,0,0,1,0V7.06A.49.49,0,0,0,9.86,6.57Zm0,0a.49.49,0,0,0-.49.49v3.65a.49.49,0,0,0,1,0V7.06A.49.49,0,0,0,9.86,6.57Zm0,0a.49.49,0,0,0-.49.49v3.65a.49.49,0,0,0,1,0V7.06A.49.49,0,0,0,9.86,6.57Zm0,0a.49.49,0,0,0-.49.49v3.65a.49.49,0,0,0,1,0V7.06A.49.49,0,0,0,9.86,6.57Zm0,0a.49.49,0,0,0-.49.49v3.65a.49.49,0,0,0,1,0V7.06A.49.49,0,0,0,9.86,6.57Zm0,0a.49.49,0,0,0-.49.49v3.65a.49.49,0,0,0,1,0V7.06A.49.49,0,0,0,9.86,6.57Zm0,0a.49.49,0,0,0-.49.49v3.65a.49.49,0,0,0,1,0V7.06A.49.49,0,0,0,9.86,6.57Zm0,0a.49.49,0,0,0-.49.49v3.65a.49.49,0,0,0,1,0V7.06A.49.49,0,0,0,9.86,6.57Zm0,0a.49.49,0,0,0-.49.49v3.65a.49.49,0,0,0,1,0V7.06A.49.49,0,0,0,9.86,6.57Zm0,0a.49.49,0,0,0-.49.49v3.65a.49.49,0,0,0,1,0V7.06A.49.49,0,0,0,9.86,6.57Zm0,0a.49.49,0,0,0-.49.49v3.65a.49.49,0,0,0,1,0V7.06A.49.49,0,0,0,9.86,6.57Zm0,0a.49.49,0,0,0-.49.49v3.65a.49.49,0,0,0,1,0V7.06A.49.49,0,0,0,9.86,6.57Zm0,0a.49.49,0,0,0-.49.49v3.65a.49.49,0,0,0,1,0V7.06A.49.49,0,0,0,9.86,6.57Zm0,0a.49.49,0,0,0-.49.49v3.65a.49.49,0,0,0,1,0V7.06A.49.49,0,0,0,9.86,6.57Zm0,0a.49.49,0,0,0-.49.49v3.65a.49.49,0,0,0,1,0V7.06A.49.49,0,0,0,9.86,6.57Zm0,0a.49.49,0,0,0-.49.49v3.65a.49.49,0,0,0,1,0V7.06A.49.49,0,0,0,9.86,6.57Zm0,0a.49.49,0,0,0-.49.49v3.65a.49.49,0,0,0,1,0V7.06A.49.49,0,0,0,9.86,6.57Zm0,0a.49.49,0,0,0-.49.49v3.65a.49.49,0,0,0,1,0V7.06A.49.49,0,0,0,9.86,6.57Zm0,0a.49.49,0,0,0-.49.49v3.65a.49.49,0,0,0,1,0V7.06A.49.49,0,0,0,9.86,6.57Zm0,0a.49.49,0,0,0-.49.49v3.65a.49.49,0,0,0,1,0V7.06A.49.49,0,0,0,9.86,6.57Zm0,0a.49.49,0,0,0-.49.49v3.65a.49.49,0,0,0,1,0V7.06A.49.49,0,0,0,9.86,6.57Zm0,0a.49.49,0,0,0-.49.49v3.65a.49.49,0,0,0,1,0V7.06A.49.49,0,0,0,9.86,6.57Zm0,0a.49.49,0,0,0-.49.49v3.65a.49.49,0,0,0,1,0V7.06A.49.49,0,0,0,9.86,6.57Zm0,0a.49.49,0,0,0-.49.49v3.65a.49.49,0,0,0,1,0V7.06A.49.49,0,0,0,9.86,6.57Zm0,0a.49.49,0,0,0-.49.49v3.65a.49.49,0,0,0,1,0V7.06A.49.49,0,0,0,9.86,6.57Zm0,0a.49.49,0,0,0-.49.49v3.65a.49.49,0,0,0,1,0V7.06A.49.49,0,0,0,9.86,6.57Zm0,0a.49.49,0,0,0-.49.49v3.65a.49.49,0,0,0,1,0V7.06A.49.49,0,0,0,9.86,6.57ZM0,0V36H36V0ZM8.56,5.37H23.11a.84.84,0,0,1,.82.85V13.5a.86.86,0,0,1-.08.36H8.24V5.44A.71.71,0,0,1,8.56,5.37Zm0,26.73a.36.36,0,0,1-.36-.37V16.28a.92.92,0,0,1,.56-.19H22.87a1.15,1.15,0,0,1,1.06,1.22V31.37a1.26,1.26,0,0,1-.22.73ZM9.86,11.2a.49.49,0,0,0,.49-.49V7.06a.49.49,0,1,0-1,0v3.65A.49.49,0,0,0,9.86,11.2Zm0-4.63a.49.49,0,0,0-.49.49v3.65a.49.49,0,0,0,1,0V7.06A.49.49,0,0,0,9.86,6.57Zm0,0a.49.49,0,0,0-.49.49v3.65a.49.49,0,0,0,1,0V7.06A.49.49,0,0,0,9.86,6.57Zm0,0a.49.49,0,0,0-.49.49v3.65a.49.49,0,0,0,1,0V7.06A.49.49,0,0,0,9.86,6.57Zm0,0a.49.49,0,0,0-.49.49v3.65a.49.49,0,0,0,1,0V7.06A.49.49,0,0,0,9.86,6.57Zm0,0a.49.49,0,0,0-.49.49v3.65a.49.49,0,0,0,1,0V7.06A.49.49,0,0,0,9.86,6.57Zm0,0a.49.49,0,0,0-.49.49v3.65a.49.49,0,0,0,1,0V7.06A.49.49,0,0,0,9.86,6.57Zm0,0a.49.49,0,0,0-.49.49v3.65a.49.49,0,0,0,1,0V7.06A.49.49,0,0,0,9.86,6.57Zm0,0a.49.49,0,0,0-.49.49v3.65a.49.49,0,0,0,1,0V7.06A.49.49,0,0,0,9.86,6.57Zm0,0a.49.49,0,0,0-.49.49v3.65a.49.49,0,0,0,1,0V7.06A.49.49,0,0,0,9.86,6.57Zm0,0a.49.49,0,0,0-.49.49v3.65a.49.49,0,0,0,1,0V7.06A.49.49,0,0,0,9.86,6.57Zm0,0a.49.49,0,0,0-.49.49v3.65a.49.49,0,0,0,1,0V7.06A.49.49,0,0,0,9.86,6.57Zm0,0a.49.49,0,0,0-.49.49v3.65a.49.49,0,0,0,1,0V7.06A.49.49,0,0,0,9.86,6.57Zm0,0a.49.49,0,0,0-.49.49v3.65a.49.49,0,0,0,1,0V7.06A.49.49,0,0,0,9.86,6.57Zm0,0a.49.49,0,0,0-.49.49v3.65a.49.49,0,0,0,1,0V7.06A.49.49,0,0,0,9.86,6.57Zm0,0a.49.49,0,0,0-.49.49v3.65a.49.49,0,0,0,1,0V7.06A.49.49,0,0,0,9.86,6.57Zm0,0a.49.49,0,0,0-.49.49v3.65a.49.49,0,0,0,1,0V7.06A.49.49,0,0,0,9.86,6.57Zm0,0a.49.49,0,0,0-.49.49v3.65a.49.49,0,0,0,1,0V7.06A.49.49,0,0,0,9.86,6.57Zm0,0a.49.49,0,0,0-.49.49v3.65a.49.49,0,0,0,1,0V7.06A.49.49,0,0,0,9.86,6.57Zm0,0a.49.49,0,0,0-.49.49v3.65a.49.49,0,0,0,1,0V7.06A.49.49,0,0,0,9.86,6.57Zm0,0a.49.49,0,0,0-.49.49v3.65a.49.49,0,0,0,1,0V7.06A.49.49,0,0,0,9.86,6.57Zm0,0a.49.49,0,0,0-.49.49v3.65a.49.49,0,0,0,1,0V7.06A.49.49,0,0,0,9.86,6.57Zm0,0a.49.49,0,0,0-.49.49v3.65a.49.49,0,0,0,1,0V7.06A.49.49,0,0,0,9.86,6.57Zm0,0a.49.49,0,0,0-.49.49v3.65a.49.49,0,0,0,1,0V7.06A.49.49,0,0,0,9.86,6.57Zm0,0a.49.49,0,0,0-.49.49v3.65a.49.49,0,0,0,1,0V7.06A.49.49,0,0,0,9.86,6.57Zm0,0a.49.49,0,0,0-.49.49v3.65a.49.49,0,0,0,1,0V7.06A.49.49,0,0,0,9.86,6.57Zm0,0a.49.49,0,0,0-.49.49v3.65a.49.49,0,0,0,1,0V7.06A.49.49,0,0,0,9.86,6.57Zm0,0a.49.49,0,0,0-.49.49v3.65a.49.49,0,0,0,1,0V7.06A.49.49,0,0,0,9.86,6.57Zm0,0a.49.49,0,0,0-.49.49v3.65a.49.49,0,0,0,1,0V7.06A.49.49,0,0,0,9.86,6.57Zm0,0a.49.49,0,0,0-.49.49v3.65a.49.49,0,0,0,1,0V7.06A.49.49,0,0,0,9.86,6.57Zm0,0a.49.49,0,0,0-.49.49v3.65a.49.49,0,0,0,1,0V7.06A.49.49,0,0,0,9.86,6.57Zm0,0a.49.49,0,0,0-.49.49v3.65a.49.49,0,0,0,1,0V7.06A.49.49,0,0,0,9.86,6.57Zm0,0a.49.49,0,0,0-.49.49v3.65a.49.49,0,0,0,1,0V7.06A.49.49,0,0,0,9.86,6.57Z"/><g class="cls-2"><path class="cls-3" d="M10.35,17v3.65a.49.49,0,1,1-1,0V17a.49.49,0,0,1,1,0Z"/></g><g class="cls-2"><path class="cls-3" d="M27.93,14.84a1.31,1.31,0,0,0-1-.49H9.09A1.37,1.37,0,0,0,7.74,15.7V31.25a1.35,1.35,0,0,0,1.35,1.34H26.9a1.35,1.35,0,0,0,1.35-1.34V15.7A1.3,1.3,0,0,0,27.93,14.84ZM8.6,32.1a.36.36,0,0,1-.36-.37V16.28a.92.92,0,0,1,.56-.19H22.87a1.15,1.15,0,0,1,1.06,1.22V31.37a1.26,1.26,0,0,1-.22.73Z"/></g><path class="cls-4" d="M9.37,20.61V17a.49.49,0,0,1,1,0v3.65a.49.49,0,1,1-1,0Z"/><path class="cls-4" d="M23.71,32.1a1,1,0,0,1-.84.49H8.8a1.15,1.15,0,0,1-1.06-1.22V17.31a1.25,1.25,0,0,1,.5-1V31.73a.36.36,0,0,0,.36.37Z"/><path class="cls-5" d="M28.55,14.54A1.27,1.27,0,0,0,28,14a1.2,1.2,0,0,0-.59-.15H8.6A1.2,1.2,0,0,0,8,14s0,0-.07,0h0a1.16,1.16,0,0,0-.49.49,1.3,1.3,0,0,0-.19.67V31.73A1.35,1.35,0,0,0,8.6,33.08H27.39a1.35,1.35,0,0,0,1.35-1.35V15.21A1.3,1.3,0,0,0,28.55,14.54Zm-.79.67V31.73a.37.37,0,0,1-.37.37H8.6a.36.36,0,0,1-.36-.37V15.21a.37.37,0,0,1,.36-.37H27.39A.38.38,0,0,1,27.76,15.21Z"/><g class="cls-2"><path class="cls-3" d="M10.35,7.06v3.65a.49.49,0,0,1-1,0V7.06a.49.49,0,1,1,1,0Z"/></g><g class="cls-2"><path class="cls-3" d="M27.21,3.41H8.78a1,1,0,0,0-1,1v8.87A1,1,0,0,0,8,14a1,1,0,0,0,.77.34H27.21A1,1,0,0,0,28,14a1,1,0,0,0,.27-.69V4.45A1,1,0,0,0,27.21,3.41Zm-19,10.45V5.44a.71.71,0,0,1,.32-.07H23.11a.84.84,0,0,1,.82.85V13.5a.86.86,0,0,1-.08.36Z"/></g><path class="cls-4" d="M9.37,10.71V7.06a.49.49,0,1,1,1,0v3.65a.49.49,0,0,1-1,0Z"/><path class="cls-4" d="M23.85,13.86a.81.81,0,0,1-.74.49H8.56a.81.81,0,0,1-.62-.3h0a.87.87,0,0,1-.19-.55V6.22a.86.86,0,0,1,.5-.78v8.42Z"/><path class="cls-5" d="M27.91,2.92H8.08a.83.83,0,0,0-.83.83V14a.79.79,0,0,0,.19.52.84.84,0,0,0,.62.3H27.93a.84.84,0,0,0,.62-.3.79.79,0,0,0,.19-.52V3.75A.83.83,0,0,0,27.91,2.92ZM8.24,13.86V3.9H27.76v10Z"/><path class="cls-5" d="M10.35,17v3.65a.49.49,0,1,1-1,0V17a.49.49,0,0,1,1,0Z"/><path class="cls-5" d="M10.35,7.06v3.65a.49.49,0,0,1-1,0V7.06a.49.49,0,1,1,1,0Z"/></g></g></svg>