<svg xmlns="http://www.w3.org/2000/svg" viewBox="0 0 36 36"><defs><style>.cls-1{fill:none;}.cls-2{fill:#343434;}.cls-3{opacity:0.6;}.cls-4{fill:#00b1a9;}</style></defs><title>housekeeping_1</title><g id="Layer_2" data-name="Layer 2"><g id="Layer_1-2" data-name="Layer 1"><rect class="cls-1" width="36" height="36"/><path class="cls-2" d="M29.05,16.65H17.23a.49.49,0,0,1,0-1H29.05a1.06,1.06,0,0,0,1.05-1.06,1,1,0,0,0-1.05-1H7a1.06,1.06,0,0,0-.75.31,1,1,0,0,0-.31.74A1.05,1.05,0,0,0,7,15.67h3.23a.49.49,0,1,1,0,1H7a2,2,0,1,1,0-4.07H29.05a2,2,0,0,1,0,4.07Z"/><g class="cls-3"><path class="cls-4" d="M29,16.63,27.34,31.74H8.67a53.89,53.89,0,0,0,6.38-.57,7.92,7.92,0,0,0,6.67-7.84v-7Z"/></g><path class="cls-2" d="M27.34,32.23H8.67a.5.5,0,0,1-.49-.44L6.45,16.21a.49.49,0,0,1,.13-.38.48.48,0,0,1,.36-.16h3.25a.49.49,0,1,1,0,1H7.49l1.62,14.6H26.9l1.62-14.6H17.23a.49.49,0,0,1,0-1H29.06a.51.51,0,0,1,.37.16.49.49,0,0,1,.12.38L27.82,31.79A.48.48,0,0,1,27.34,32.23Z"/><g class="cls-3"><path class="cls-4" d="M18.61,21.13l-1.38-.88v2.6A3.24,3.24,0,0,1,15,25.93a3.31,3.31,0,0,1-.42.12,3.56,3.56,0,0,1-3.83-1.6l-.38-.82c3.8,1.19,4.49-1.28,4.49-1.28V13.07h2.36v4.09l3.27,2.46C21,21.49,18.61,21.13,18.61,21.13Z"/></g><path class="cls-2" d="M21,19.51a.47.47,0,0,0-.18-.28l-3.08-2.31V13.07a.46.46,0,0,0-.05-.21.49.49,0,0,0-.44-.28h-7a.49.49,0,0,0-.49.49v9.44a4.12,4.12,0,0,0,1.57,3.25,4.06,4.06,0,0,0,3.42.78l.46-.13a3.72,3.72,0,0,0,2.56-3.55V21.15l.63.4a.64.64,0,0,0,.19.08,2.7,2.7,0,0,0,2.14-.54A1.65,1.65,0,0,0,21,19.51Zm-4.24-6v3.6a.49.49,0,0,0,.2.4l3.12,2.34a.63.63,0,0,1-.1.52,1.7,1.7,0,0,1-1.18.25l-1.29-.83a.49.49,0,0,0-.75.42v2.6a2.73,2.73,0,0,1-1.88,2.61,3.18,3.18,0,0,1-.38.11A3,3,0,0,1,11.88,25,3.12,3.12,0,0,1,11,23.8h0a3.1,3.1,0,0,1-.28-1.28v-9Z"/><path class="cls-2" d="M15.25,8.84l-.48-.31-.27-.17h0l-.21-.14A.47.47,0,0,0,14,8.13H10.19a.47.47,0,0,0-.32.12l-.07.06-.67.56a3.31,3.31,0,0,0-1.2,2.56v1.64a.49.49,0,0,0,.49.49h7.85a.49.49,0,0,0,.49-.49V11.63A3.31,3.31,0,0,0,15.25,8.84ZM8.91,12.58V11.43a2.35,2.35,0,0,1,.85-1.81l.61-.51h3.5l.84.56a2.33,2.33,0,0,1,1.07,2v.95Z"/><g class="cls-3"><rect class="cls-4" x="10.2" y="5.72" width="4.3" height="2.89"/></g><path class="cls-2" d="M13.69,5.24H11A1.29,1.29,0,0,0,9.7,6.53V7.82a1.16,1.16,0,0,0,.1.49,1.28,1.28,0,0,0,1.19.8h2.7A1.28,1.28,0,0,0,15,7.82V6.53A1.29,1.29,0,0,0,13.69,5.24Zm-3,2.58V6.53A.31.31,0,0,1,11,6.22h2.7a.31.31,0,0,1,.31.31V7.82a.31.31,0,0,1-.31.31H11A.31.31,0,0,1,10.68,7.82Z"/><path class="cls-2" d="M27.11,13.56H18.16a.49.49,0,0,1-.49-.49V11.62a.5.5,0,0,1,.23-.42l2.66-1.61v-1a.49.49,0,0,1,1,0V9.87a.5.5,0,0,1-.23.42L18.65,11.9v.68h8v-.7l-2.23-1.5a.49.49,0,0,1-.22-.41V8.62s0-.07,0-.11.36-1.34,2.44-1.76v-2h-2a.5.5,0,0,1,0-1h2.45a.49.49,0,0,1,.49.49V7.17a.5.5,0,0,1-.43.49c-1.57.2-1.94.86-2,1v1l2.22,1.5a.49.49,0,0,1,.22.41v1.45A.49.49,0,0,1,27.11,13.56Z"/><path class="cls-2" d="M27.11,13.56H18.16a.49.49,0,0,1-.49-.49V11.62a.5.5,0,0,1,.23-.42l2.66-1.61v-1a.49.49,0,0,1,1,0V9.87a.5.5,0,0,1-.23.42L18.65,11.9v.68h8v-.7l-2.23-1.5a.49.49,0,0,1-.22-.41V8.62s0-.07,0-.11.36-1.34,2.44-1.76v-2h-2a.5.5,0,0,1,0-1h2.45a.49.49,0,0,1,.49.49V7.17a.5.5,0,0,1-.43.49c-1.57.2-1.94.86-2,1v1l2.22,1.5a.49.49,0,0,1,.22.41v1.45A.49.49,0,0,1,27.11,13.56Z"/><g class="cls-3"><path class="cls-4" d="M19.9,8.62h4.76V4.26S19.72,4.17,19.9,8.62Z"/></g><path class="cls-2" d="M24.67,3.78h-.12a6,6,0,0,0-4,1.53A4.34,4.34,0,0,0,19.4,8.64a.5.5,0,0,0,.5.47h4.76a.49.49,0,0,0,.49-.49V4.27A.49.49,0,0,0,24.67,3.78ZM20.39,8.13A3.15,3.15,0,0,1,21.25,6a4.88,4.88,0,0,1,2.92-1.21V8.13Z"/><g class="cls-3"><rect class="cls-4" x="27.11" y="4.68" width="1.54" height="1.83"/></g><path class="cls-2" d="M28.64,4.19H27.1a.49.49,0,0,0-.49.49V6.51A.49.49,0,0,0,27.1,7h1.54a.49.49,0,0,0,.49-.49V4.68A.49.49,0,0,0,28.64,4.19ZM28.15,6h-.56V5.18h.56Z"/></g></g></svg>