<svg xmlns="http://www.w3.org/2000/svg" viewBox="0 0 36 36"><defs><style>.cls-1{fill:none;}.cls-2{opacity:0.6;}.cls-3{fill:#00b1a9;}.cls-4{fill:#343434;}.cls-5{fill:#fff;}</style></defs><title>pillow_1</title><g id="Layer_2" data-name="Layer 2"><g id="Layer_1-2" data-name="Layer 1"><path class="cls-1" d="M24.77,21.44l.14,0a1.14,1.14,0,0,0-.32,0Z"/><path class="cls-1" d="M26.6,18.56a.48.48,0,0,1-.47.47.39.39,0,0,1-.27-.1.45.45,0,0,1-.19-.37.48.48,0,0,1,.28-.43.39.39,0,0,1,.18,0A.47.47,0,0,1,26.6,18.56Z"/><path class="cls-1" d="M28.47,17.62a.77.77,0,0,1-.77.78.79.79,0,0,1-.74-.53v0a.59.59,0,0,1,0-.23.8.8,0,0,1,.1-.38.77.77,0,0,1,1.45.38Z"/><path class="cls-1" d="M28.16,19.63a.47.47,0,1,1-.46-.47A.47.47,0,0,1,28.16,19.63Z"/><path class="cls-1" d="M0,0V36H36V0ZM31.4,29.25a.7.7,0,0,1-.67-.48,2.46,2.46,0,0,0-.09-.29.65.65,0,0,0-.65-.37h-.18c-1.12.15-2.23.32-3.35.43a52.28,52.28,0,0,1-5.45.34l-1,0a65.3,65.3,0,0,1-8-.73l-.29,0a.55.55,0,0,0-.43.15.24.24,0,0,0-.08.09,1.5,1.5,0,0,0-.19.4.72.72,0,0,1-.44.46.65.65,0,0,1-.28,0,.7.7,0,0,1-.65-.61.68.68,0,0,1,.49-.75c.63-.2.75-.41.67-1-.16-1.3-.32-2.61-.4-3.93q0-.5,0-1a17.72,17.72,0,0,1,.06-2.06c.1-1.19.25-2.37.38-3.56,0-.07,0-.14,0-.18a.75.75,0,0,0-.58-.76,1.16,1.16,0,0,1-.47-.27.62.62,0,0,1-.08-.75.65.65,0,0,1,.61-.38h0a.68.68,0,0,1,.63.46,1.35,1.35,0,0,0,.3.5l.08.07a.65.65,0,0,0,.33.07L12,15c.82-.12,1.63-.23,2.45-.33s1.7-.19,2.55-.26l.83,0c.5,0,1-.06,1.49-.08l1.36,0h1c1.48,0,3,.12,4.44.27l1,.1c.9.1,1.79.23,2.69.38a1,1,0,0,0,.24,0c.35,0,.55-.18.69-.6a.7.7,0,0,1,.43-.48.4.4,0,0,1,.19,0h.12a.71.71,0,0,1,.63.61.72.72,0,0,1-.51.77c-.61.19-.74.39-.66,1.05a39.67,39.67,0,0,1,.42,5A35.43,35.43,0,0,1,31,26.31c0,.25-.07.51-.09.77a.67.67,0,0,0,.52.75l.2.06a.67.67,0,0,1,.46.74.7.7,0,0,1-.6.61Z"/><g class="cls-2"><path class="cls-3" d="M26.25,7.29h-.08a.78.78,0,0,0-.22,0,.75.75,0,0,0-.44.48,1,1,0,0,1-.27.46.58.58,0,0,1-.26.13h-.1a1.06,1.06,0,0,1-.3,0,56.73,56.73,0,0,0-8.11-.74h-1a58.76,58.76,0,0,0-8.68.73,3.15,3.15,0,0,1-.37,0c-.36,0-.5-.16-.71-.65a.68.68,0,0,0-.63-.46h0a.65.65,0,0,0-.61.38.63.63,0,0,0,.08.75A1.16,1.16,0,0,0,5,8.69a.77.77,0,0,1,.58.77,1.39,1.39,0,0,0,0,.17c-.13,1.19-.28,2.38-.38,3.57a33.24,33.24,0,0,0,.37,7c.08.63,0,.84-.67,1A.7.7,0,0,0,5,22.58h.06a.69.69,0,0,0,.66-.5c.15-.46.33-.64.7-.64l.29,0c.86.14,1.73.26,2.6.35.33,0,.66.08,1,.1a17.72,17.72,0,0,1,.06-2.06c.1-1.19.25-2.37.38-3.56,0-.07,0-.14,0-.18a.75.75,0,0,0-.58-.76,1.16,1.16,0,0,1-.47-.27.62.62,0,0,1-.08-.75.65.65,0,0,1,.61-.38h0a.68.68,0,0,1,.63.46,1.35,1.35,0,0,0,.3.5l.08.07a.65.65,0,0,0,.33.07L12,15c.82-.12,1.63-.23,2.45-.33s1.7-.19,2.55-.26l.83,0c.5,0,1-.06,1.49-.08l1.36,0h1c1.48,0,3,.12,4.44.27,0-.33,0-.66,0-1-.06-1.29-.22-2.57-.39-3.85-.08-.65.05-.86.66-1a.74.74,0,0,0,.51-.78A.71.71,0,0,0,26.25,7.29Zm-.58,11.27a.45.45,0,0,0,.19.37c0-.26.07-.53.09-.8A.48.48,0,0,0,25.67,18.56Zm-.9,2.88-.18,0a1.14,1.14,0,0,1,.32,0Z"/></g><path class="cls-4" d="M27.85,7.79a1.68,1.68,0,0,0-1.51-1.48h-.17a1.67,1.67,0,0,0-1.56,1.09,58.48,58.48,0,0,0-8.12-.73l-1,0a58.88,58.88,0,0,0-8.82.75h0a1.68,1.68,0,0,0-1.5-1.07H5.06a1.64,1.64,0,0,0-1.49.92,1.61,1.61,0,0,0,.24,1.86,2.13,2.13,0,0,0,.76.49l-.12,1c-.09.82-.18,1.66-.26,2.5a34.64,34.64,0,0,0,.37,7.17A1.68,1.68,0,0,0,3.4,22.05,1.71,1.71,0,0,0,5,23.56h.14a1.67,1.67,0,0,0,1.57-1.11c.89.14,1.79.26,2.72.36l1,.1q0-.5,0-1c-.33,0-.66-.06-1-.1-.87-.09-1.74-.21-2.6-.35l-.29,0c-.37,0-.55.18-.7.64a.69.69,0,0,1-.66.5H5a.7.7,0,0,1-.16-1.37c.63-.2.75-.41.67-1a33.24,33.24,0,0,1-.37-7c.1-1.19.25-2.38.38-3.57a1.39,1.39,0,0,1,0-.17A.77.77,0,0,0,5,8.69a1.16,1.16,0,0,1-.47-.27.63.63,0,0,1-.08-.75.65.65,0,0,1,.61-.38h0a.68.68,0,0,1,.63.46c.21.49.35.65.71.65a3.15,3.15,0,0,0,.37,0,58.76,58.76,0,0,1,8.68-.73h1a56.73,56.73,0,0,1,8.11.74l.24,0H25a.58.58,0,0,0,.26-.13,1,1,0,0,0,.27-.46A.75.75,0,0,1,26,7.32a.78.78,0,0,1,.22,0h.08a.71.71,0,0,1,.63.61.74.74,0,0,1-.51.78c-.61.18-.74.39-.66,1,.17,1.28.33,2.56.39,3.85,0,.34,0,.67,0,1l1,.1c0-.33,0-.66,0-1-.06-1.33-.22-2.65-.4-4.08A1.7,1.7,0,0,0,27.85,7.79Zm-.93,9.83a.59.59,0,0,0,0,.23c0-.2,0-.41.06-.61A.8.8,0,0,0,26.92,17.62Zm-.79.47a.39.39,0,0,0-.18,0c0,.27-.05.54-.09.8a.39.39,0,0,0,.27.1.47.47,0,1,0,0-.94Zm-1.36,3.35-.18,0a1.14,1.14,0,0,1,.32,0Z"/><path class="cls-5" d="M27.7,19.16a.47.47,0,1,0,.46.47A.47.47,0,0,0,27.7,19.16Zm0-2.32a.77.77,0,0,0-.68.4.8.8,0,0,0-.1.38.59.59,0,0,0,0,.23v0a.79.79,0,0,0,.74.53.78.78,0,0,0,0-1.56Zm-1.57,1.25a.39.39,0,0,0-.18,0,.48.48,0,0,0-.28.43.45.45,0,0,0,.19.37.39.39,0,0,0,.27.1.47.47,0,1,0,0-.94Zm-1.36,3.35-.18,0a1.14,1.14,0,0,1,.32,0Z"/><path class="cls-4" d="M32,27l-.08,0c0-.16,0-.31.06-.47v0a35.63,35.63,0,0,0,.36-5.07,39.81,39.81,0,0,0-.42-5.1,1.7,1.7,0,0,0,1.16-1.81A1.68,1.68,0,0,0,31.56,13h-.17a1.67,1.67,0,0,0-1.56,1.09c-.9-.15-1.81-.28-2.74-.38l-1-.11c-1.41-.13-2.87-.21-4.39-.25h-1a58.88,58.88,0,0,0-8.82.75h0s0,0,0,0A1.67,1.67,0,0,0,10.36,13h-.08a1.64,1.64,0,0,0-1.49.92A1.62,1.62,0,0,0,9,15.76a2.13,2.13,0,0,0,.76.49l-.12,1c-.09.82-.19,1.66-.26,2.5a20,20,0,0,0-.07,2c0,.33,0,.66,0,1,.06,1.44.24,2.84.4,4.13a1.68,1.68,0,0,0,.39,3.28h.14a1.67,1.67,0,0,0,1.57-1.11,63.3,63.3,0,0,0,8.07.73l1.06,0a53.68,53.68,0,0,0,5.55-.34c.8-.08,1.61-.19,2.39-.3l.86-.12a1.68,1.68,0,0,0,1.59,1.12h.21a1.7,1.7,0,0,0,1.46-1.46A1.67,1.67,0,0,0,32,27Zm-.5,2.26H31.4a.7.7,0,0,1-.67-.48,2.46,2.46,0,0,0-.09-.29.65.65,0,0,0-.65-.37h-.18c-1.12.15-2.23.32-3.35.43a52.28,52.28,0,0,1-5.45.34l-1,0a65.3,65.3,0,0,1-8-.73l-.29,0a.55.55,0,0,0-.43.15.24.24,0,0,0-.08.09,1.5,1.5,0,0,0-.19.4.72.72,0,0,1-.44.46.57.57,0,0,1-.22,0h-.06a.7.7,0,0,1-.65-.61.68.68,0,0,1,.49-.75c.63-.2.75-.41.67-1-.16-1.3-.32-2.61-.4-3.93q0-.5,0-1a17.72,17.72,0,0,1,.06-2.06c.1-1.19.25-2.37.38-3.56,0-.07,0-.14,0-.18a.75.75,0,0,0-.58-.76,1.16,1.16,0,0,1-.47-.27.62.62,0,0,1-.08-.75.65.65,0,0,1,.61-.38h0a.68.68,0,0,1,.63.46,1.35,1.35,0,0,0,.3.5l.08.07a.65.65,0,0,0,.33.07L12,15c.82-.12,1.63-.23,2.45-.33s1.7-.19,2.55-.26l.83,0c.5,0,1-.06,1.49-.08l1.36,0h1c1.48,0,3,.12,4.44.27l1,.1c.9.1,1.79.23,2.69.38a1,1,0,0,0,.24,0c.35,0,.55-.18.69-.6a.7.7,0,0,1,.43-.48.4.4,0,0,1,.19,0h.12a.71.71,0,0,1,.63.61.72.72,0,0,1-.51.77c-.61.19-.74.39-.66,1.05a39.67,39.67,0,0,1,.42,5A35.43,35.43,0,0,1,31,26.31c0,.25-.07.51-.09.77a.67.67,0,0,0,.52.75l.2.06a.67.67,0,0,1,.46.74A.7.7,0,0,1,31.49,29.24Z"/><g class="cls-2"><path class="cls-3" d="M26.6,18.56a.48.48,0,0,1-.47.47.39.39,0,0,1-.27-.1.45.45,0,0,1-.19-.37.48.48,0,0,1,.28-.43.39.39,0,0,1,.18,0A.47.47,0,0,1,26.6,18.56Z"/></g><g class="cls-2"><path class="cls-3" d="M28.16,19.63a.47.47,0,1,1-.46-.47A.47.47,0,0,1,28.16,19.63Z"/></g><g class="cls-2"><path class="cls-3" d="M28.47,17.62a.77.77,0,0,1-.77.78.79.79,0,0,1-.74-.53v0a.59.59,0,0,1,0-.23.8.8,0,0,1,.1-.38.77.77,0,0,1,1.45.38Z"/></g></g></g></svg>