<svg xmlns="http://www.w3.org/2000/svg" viewBox="0 0 36 36"><defs><style>.cls-1{fill:none;}.cls-2{opacity:0.6;}.cls-3{fill:#00b1a9;}.cls-4{fill:#343434;}</style></defs><title>powerbackup2</title><g id="Layer_2" data-name="Layer 2"><g id="Layer_1-2" data-name="Layer 1"><rect class="cls-1" width="36" height="36"/><g class="cls-2"><rect class="cls-3" x="4.53" y="8.5" width="27.13" height="3.94" rx="1.97"/></g><path class="cls-4" d="M30.81,8H5.38A1.34,1.34,0,0,0,4,9.36V11.6a1.34,1.34,0,0,0,1.34,1.34H30.82a1.34,1.34,0,0,0,1.33-1.34V9.36A1.34,1.34,0,0,0,30.81,8Zm0,3.94H5.38A.36.36,0,0,1,5,11.6V9.36A.36.36,0,0,1,5.38,9H30.81a.36.36,0,0,1,.36.36V11.6A.36.36,0,0,1,30.81,12Z"/><g class="cls-2"><path class="cls-3" d="M30.33,12.44V29.57a1.54,1.54,0,0,1-1.54,1.54H7.63a1.54,1.54,0,0,1-1.54-1.54V27.78a1.53,1.53,0,0,0,1.54,1.53H27.07a1.53,1.53,0,0,0,1.54-1.53V12.44Z"/></g><path class="cls-4" d="M30.72,12.16h0a.48.48,0,0,0-.39-.19H6.09a.5.5,0,0,0-.45.29h0a.41.41,0,0,0,0,.19V29.58a2,2,0,0,0,2,2H28.79a2,2,0,0,0,2-2V12.45A.48.48,0,0,0,30.72,12.16Zm-.88.78V29.58a1,1,0,0,1-1.05,1.05H7.63a1,1,0,0,1-1-1.05V12.94Z"/><g class="cls-2"><path class="cls-3" d="M19,19.94h2.75a.26.26,0,0,1,.22.15.23.23,0,0,1-.05.25l-.74.88-4,4.74-2.67,3.16c-.1.12-.22.16-.32.1s-.15-.18-.08-.35l2.43-5.77a3.47,3.47,0,0,1,.15-.36H14.34a.36.36,0,0,1-.24-.09c-.09-.08-.06-.19,0-.29l1.07-2.13c.78-1.57,1.57-3.13,2.35-4.71a.36.36,0,0,1,.36-.23h3.56c.2,0,.32.11.28.28a.51.51,0,0,1-.07.15L19.05,19.8A1.15,1.15,0,0,1,19,19.94Z"/></g><path class="cls-4" d="M22.39,19.92a.73.73,0,0,0-.64-.46H19.86L22.05,16a1,1,0,0,0,.14-.31.71.71,0,0,0-.13-.6.79.79,0,0,0-.63-.27H17.87a.86.86,0,0,0-.81.51L15.27,18.9l-.83,1.67c-.26.52-.53,1-.79,1.57a.7.7,0,0,0,.12.88.88.88,0,0,0,.56.21h1.6l-2.3,5.45a.81.81,0,0,0,0,.63.71.71,0,0,0,.31.33.63.63,0,0,0,.34.1.83.83,0,0,0,.61-.3l.11-.13,7.28-8.65A.7.7,0,0,0,22.39,19.92Zm-5.27,3a.51.51,0,0,0,0-.45.49.49,0,0,0-.39-.23h-2L15.32,21l.83-1.67c.59-1.18,1.18-2.36,1.77-3.56H21l-1.89,3-.58.92a.5.5,0,0,0,0,.5.5.5,0,0,0,.43.25h2.2l-6,7.12Z"/><path class="cls-4" d="M10,5.78H6.7a.49.49,0,0,0-.49.5v2.1a.4.4,0,0,0,0,.15.47.47,0,0,0,.46.34H10a.47.47,0,0,0,.47-.36.59.59,0,0,0,0-.13V6.28A.49.49,0,0,0,10,5.78Zm-2.84,1H9.54V7.89H7.19Z"/><path class="cls-4" d="M29.58,5.78H26.25a.49.49,0,0,0-.49.5v2.1a.59.59,0,0,0,0,.13.47.47,0,0,0,.47.36h3.33A.48.48,0,0,0,30,8.54a.41.41,0,0,0,0-.16V6.28A.49.49,0,0,0,29.58,5.78Zm-2.84,1h2.35V7.89H26.74Z"/></g></g></svg>