<svg xmlns="http://www.w3.org/2000/svg" viewBox="0 0 36 36"><defs><style>.cls-1{opacity:0.6;}.cls-2{fill:#00b1a9;}.cls-3{fill:none;}.cls-4{fill:#343434;}</style></defs><title>security_1</title><g id="Layer_2" data-name="Layer 2"><g id="Layer_1-2" data-name="Layer 1"><g class="cls-1"><path class="cls-2" d="M17.81,26.12l-1.24,4.67,1.13,1.77,2-1.77-1.37-4.74C18.28,25.92,17.85,26,17.81,26.12Z"/></g><g class="cls-1"><path class="cls-2" d="M10.09,24.89c0,.13,0,.18-.13.21a5.21,5.21,0,0,0-.54.16L9,24.73c.1-.18.2-.35.31-.52a.26.26,0,0,1,.14-.06s.05,0,.08.05c.18.05.42.05.53.17S10.06,24.72,10.09,24.89Z"/></g><g class="cls-1"><path class="cls-2" d="M11.94,23.77a2,2,0,0,1,0,.42.24.24,0,0,1-.1.19c-.17.07-.35.12-.55.18L10.86,24l.36-.55c.21,0,.43.07.64.13C11.9,23.62,11.93,23.71,11.94,23.77Z"/></g><g class="cls-1"><path class="cls-2" d="M15.53,22.4l-.06.12-.83,1.59-.22.42-.56.11-1.48-2.12c-1,.29-2,.54-2.94.87a6.87,6.87,0,0,0-2.78,1.76A4,4,0,0,0,5.54,28c0,1,.12,1.92.2,2.88a1.1,1.1,0,0,0,1,.89,2.61,2.61,0,0,0,.28,0H8.19v.3l-2.3.26a1.86,1.86,0,0,1-.44-1.05c-.07-.75-.12-1.5-.19-2.25a5.11,5.11,0,0,1,2-4.79,9.43,9.43,0,0,1,3.07-1.58c.54-.17,1.09-.29,1.64-.42a3.61,3.61,0,0,0,2-1.29l.79.47Z"/></g><g class="cls-1"><path class="cls-2" d="M31.34,28.65c-.08.75-.12,1.5-.19,2.25a1.8,1.8,0,0,1-.44,1l-2.3-.25V26.87c-.36-1.75-6.23-2.7-6.23-2.7L21.07,22l.75-1,.79-.48a3.52,3.52,0,0,0,2,1.29c.55.13,1.11.25,1.65.42a9.31,9.31,0,0,1,3.06,1.59A5.11,5.11,0,0,1,31.34,28.65Z"/></g><g class="cls-1"><path class="cls-2" d="M12.38,22.52c-1,.29-2,.54-2.94.87a6.87,6.87,0,0,0-2.78,1.76A4,4,0,0,0,5.54,28c0,1,.12,1.92.2,2.88a1.1,1.1,0,0,0,1,.89,2.61,2.61,0,0,0,.28,0H8.19V27.24c.29-1.42,4.19-2.32,5.67-2.6Zm-2.29,2.37c0,.13,0,.18-.13.21a5.21,5.21,0,0,0-.54.16L9,24.73c.1-.18.2-.35.31-.52a.26.26,0,0,1,.14-.06s.05,0,.08.05c.18.05.42.05.53.17S10.06,24.72,10.09,24.89Zm1.77-.51c-.17.07-.35.12-.55.18L10.86,24l.36-.55c.21,0,.43.07.64.13,0,0,.07.11.08.17a2,2,0,0,1,0,.42A.24.24,0,0,1,11.86,24.38Z"/></g><path class="cls-3" d="M9.42,25.26,9,24.73c.1-.18.2-.35.31-.52a.26.26,0,0,1,.14-.06s.05,0,.08.05c.18.05.42.05.53.17s0,.35,0,.52,0,.18-.13.21A5.21,5.21,0,0,0,9.42,25.26Z"/><path class="cls-3" d="M11.31,24.56,10.86,24l.36-.55c.21,0,.43.07.64.13,0,0,.07.11.08.17a2,2,0,0,1,0,.42.24.24,0,0,1-.1.19C11.69,24.45,11.51,24.5,11.31,24.56Z"/><path class="cls-3" d="M0,0V36H36V0ZM5.54,28a4,4,0,0,1,1.12-2.83,6.87,6.87,0,0,1,2.78-1.76c1-.33,2-.58,2.94-.87l1.48,2.12c-1.48.28-5.38,1.18-5.67,2.6v4.51H7a2.61,2.61,0,0,1-.28,0,1.1,1.1,0,0,1-1-.89C5.66,29.9,5.55,28.94,5.54,28Z"/><g class="cls-1"><path class="cls-2" d="M21.41,19.66l.77,1.08-1.64,1.32-2,.94-.07-2.08a1.66,1.66,0,0,1-1.36-.36c4.46-.68,4.26-7,4.26-7l1.86-.62h1C24.43,14.17,21.41,19.66,21.41,19.66Z"/></g><g class="cls-1"><path class="cls-2" d="M16.73,4.25s5.33,2.53,5.13,4.08v2.11l-2.11.19a2,2,0,0,1-.08,2.47l4.56-.2.61-2.29,1.37-2.12L18.11,3.27Z"/></g><g class="cls-1"><circle class="cls-2" cx="17.83" cy="9.69" r="1.09"/></g><path class="cls-4" d="M29.33,23.86c-.23-.18-.47-.35-.71-.51l-.37-.22c-.25-.14-.5-.27-.76-.39l-.41-.17c-.27-.11-.54-.2-.82-.29l-.81-.23h0l-.82-.19-.31-.1a.82.82,0,0,1-.26-.1h0a1.43,1.43,0,0,1-.28-.13,1.82,1.82,0,0,1-.27-.15A3.24,3.24,0,0,1,23,21a6.25,6.25,0,0,1-.41-.43,5.51,5.51,0,0,1-.64-1c0-.05,0-.17.07-.23a14.23,14.23,0,0,0,2.52-5.26A14,14,0,0,1,25,11.74a.09.09,0,0,0,0-.05,2.67,2.67,0,0,1,.64-1.57c.26-.33.54-.65.8-1a.83.83,0,0,0-.17-1.26c-.27-.21-.56-.41-.85-.6L18.85,3A1.61,1.61,0,0,0,17,3c-.83.52-1.68,1-2.49,1.55C12.9,5.58,11.3,6.66,9.71,7.74a.91.91,0,0,0-.14,1.45c.27.3.56.59.84.88a2.76,2.76,0,0,1,.82,1.75.87.87,0,0,0,.16.49,1.72,1.72,0,0,1,.33,1,12.42,12.42,0,0,0,2.16,5.71.57.57,0,0,1,0,.73,5.75,5.75,0,0,1-.5.75,3.68,3.68,0,0,1-2.26,1.36A10.74,10.74,0,0,0,7,23.59a5,5,0,0,0-2.39,4.05A24.31,24.31,0,0,0,4.81,31a2,2,0,0,0,2.05,1.74h9.33a8.78,8.78,0,0,1-.66-.74.42.42,0,0,0-.39-.2c-2.31,0-4.64,0-7,0H7a2.61,2.61,0,0,1-.28,0,1.1,1.1,0,0,1-1-.89c-.08-1-.19-1.92-.2-2.88a4,4,0,0,1,1.12-2.83,6.87,6.87,0,0,1,2.78-1.76c1-.33,2-.58,2.94-.87l1.48,2.12,1.06,1.53c.37.55.86.55,1.22,0,.13-.21.25-.41.4-.64.14.3.34.51.28.87-.26,1.41-.48,2.83-.7,4.25a1.08,1.08,0,0,0,.39,1.06c.38.31.78.59,1.19.87a.62.62,0,0,0,.33.13h.16a.56.56,0,0,0,.27-.1c.41-.28.81-.58,1.2-.89a1.09,1.09,0,0,0,.41-1.1c-.29-1.39-.56-2.79-.88-4.17a1.12,1.12,0,0,1,.26-.88c.15.26.28.48.43.7a.62.62,0,0,0,1.1,0l1.41-2,.42-.6.75-1.07c.39.1.75.21,1.11.28a9.87,9.87,0,0,1,3.76,1.55,4.21,4.21,0,0,1,2,4c-.07.71-.15,1.42-.15,2.12a1.22,1.22,0,0,1-1.2,1.23h-.13c-2.55,0-5.11,0-7.66,0a.64.64,0,0,0-.67.33,3.79,3.79,0,0,1-.5.61h8.85l.43,0A2,2,0,0,0,30.7,32l.05-.05v0l0-.06h0l0,0a.43.43,0,0,0,0-.07l.07-.12a.31.31,0,0,0,.06-.13,1.12,1.12,0,0,0,.05-.13.58.58,0,0,0,.05-.14,2.5,2.5,0,0,0,0-.29c.06-.75.11-1.5.19-2.24A5.13,5.13,0,0,0,29.33,23.86ZM18.59,25.12a.31.31,0,0,1-.16.06h-.5c-.44.11-.64-.15-.77-.49a.28.28,0,0,1,0-.22,2.26,2.26,0,0,1,.22-.37.27.27,0,0,1,.19-.08c.19,0,.37,0,.56,0a.48.48,0,0,1,.54.28A.64.64,0,0,1,18.59,25.12Zm-7-15.43a.46.46,0,0,1-.39-.17l-.94-1c.51-.36,1-.72,1.5-1,1.66-1.08,3.33-2.14,5-3.2h0l.06,0,.77-.49a.57.57,0,0,1,.65,0l7.4,4.84.05.06-.81,1a.33.33,0,0,1-.19.08H20l-.09,0a1.93,1.93,0,0,0-.75-1.48A1.87,1.87,0,0,0,18,7.81c-1,0-1.59.58-1.91,1.88h-4.5Zm6.43.93a.94.94,0,0,1,0-1.87,1,1,0,0,1,.94.75,1.23,1.23,0,0,1,0,.19,1.1,1.1,0,0,1,0,.18A1,1,0,0,1,18,10.62Zm-5.84,1a6.54,6.54,0,0,0-.21-1H16.1a.43.43,0,0,1,.38.18,1.87,1.87,0,0,0,3,0,.39.39,0,0,1,.26-.16c1.45,0,2.9,0,4.36,0l.12,0c-.06.34-.1.67-.19,1a.68.68,0,0,1-.54.55c-.87.15-1.74.35-2.62.42-.31,0-.62.05-.94.06h0c-.89.05-1.77.06-2.67.05a22.8,22.8,0,0,1-4.71-.63A.49.49,0,0,1,12.15,11.6Zm.74,3c-.12-.48-.19-1-.29-1.5a27.83,27.83,0,0,0,8.81.44h0c.77-.09,1.55-.21,2.32-.36-.05.22-.08.45-.13.67a13,13,0,0,1-2.38,4.94,4.31,4.31,0,0,1-2,1.52,3.64,3.64,0,0,1-1.6.17h0a4,4,0,0,1-2.6-1.39A10.8,10.8,0,0,1,12.89,14.57Zm3.63,9.16c-.32.53-.65,1.05-1,1.57,0,0,0,0-.06,0l-.85-1.22-1.41-2,.82-.76,1.18,1,.24.2c.32.27.63.54,1,.79A.3.3,0,0,1,16.52,23.73ZM16.35,22c-.58-.51-1.17-1-1.78-1.49l.22-.4a5.36,5.36,0,0,0,3.73,1.27h0a5.24,5.24,0,0,0,2.7-1.2c.06.1.12.19.18.3l-2.06,1.73c-.27.23-.52.5-.77.75a.26.26,0,0,1-.17.07h-.86a.22.22,0,0,1-.16-.05C17,22.7,16.71,22.35,16.35,22Zm.83,9a.38.38,0,0,1-.13-.3c.25-1.52.5-3.05.76-4.58h.37c.14.7.29,1.39.43,2.08s.33,1.58.5,2.37a.45.45,0,0,1-.2.54c-.28.17-.54.38-.81.57C17.78,31.46,17.47,31.25,17.18,31Zm4.61-7.59h0c-.44.64-.9,1.28-1.35,1.93-.15-.23-.28-.44-.4-.65s-.4-.63-.59-.95a.29.29,0,0,1,0-.41L21.06,22h0l.81-.67.06,0c.12.13.23.26.36.38s.28.22.44.34C22.43,22.52,22.11,23,21.79,23.42Z"/><path class="cls-4" d="M26.28,26.58H23.22a.5.5,0,0,0-.55.55v2.46a.66.66,0,0,0,.46.66c.5.18,1,.36,1.5.52a.5.5,0,0,0,.34,0c.47-.15.94-.32,1.41-.49a.67.67,0,0,0,.52-.74V27.19C26.9,26.74,26.74,26.58,26.28,26.58ZM26,29.32c0,.05-.08.13-.13.15q-.46.18-.93.33a.39.39,0,0,1-.24,0c-.3-.1-.59-.2-.88-.32-.07,0-.16-.12-.16-.19,0-.57,0-1.14,0-1.74H26C26,28.15,26,28.73,26,29.32Z"/><path class="cls-4" d="M26.51,25.26,25.88,25c0-.22,0-.42,0-.63,0,0,.07-.1.12-.11a2.42,2.42,0,0,1,.48-.13.24.24,0,0,1,.19.07c.09.12.18.25.26.38s0,.14,0,.17S26.67,25.1,26.51,25.26Z"/><path class="cls-4" d="M12,24.19a.24.24,0,0,1-.1.19c-.17.07-.35.12-.55.18L10.86,24l.36-.55c.21,0,.43.07.64.13,0,0,.07.11.08.17A2,2,0,0,1,12,24.19Z"/><path class="cls-4" d="M10.09,24.89c0,.13,0,.18-.13.21a5.21,5.21,0,0,0-.54.16L9,24.73c.1-.18.2-.35.31-.52a.26.26,0,0,1,.14-.06s.05,0,.08.05c.18.05.42.05.53.17S10.06,24.72,10.09,24.89Z"/><path class="cls-4" d="M24.63,24.56,24,24.33c0-.21,0-.41,0-.6s.08-.12.13-.14a3.62,3.62,0,0,1,.47-.13.26.26,0,0,1,.19.07,2.59,2.59,0,0,1,.25.39.19.19,0,0,1,0,.16C24.94,24.25,24.78,24.4,24.63,24.56Z"/></g></g></svg>