<svg xmlns="http://www.w3.org/2000/svg" viewBox="0 0 36 36"><defs><style>.cls-1{fill:none;}.cls-2{fill:#343434;}.cls-3{fill:#fff;}.cls-4{opacity:0.6;}.cls-5{fill:#00b1a9;}</style></defs><title>wash_1</title><g id="Layer_2" data-name="Layer 2"><g id="Layer_1-2" data-name="Layer 1"><circle class="cls-1" cx="12.58" cy="18" r="0.47"/><path class="cls-1" d="M14.91,17.07a.76.76,0,0,1-.77.77.77.77,0,0,1-.78-.77.78.78,0,0,1,.78-.78A.77.77,0,0,1,14.91,17.07Z"/><path class="cls-1" d="M14.61,19.07a.47.47,0,1,1-.47-.47A.47.47,0,0,1,14.61,19.07Z"/><path class="cls-1" d="M0,0V36H36V0ZM23.21,21.6c-2.72,1-6.52-1-6.52-1a8.58,8.58,0,0,0-6.57.94,7.19,7.19,0,0,1-.06-.94,7.94,7.94,0,0,1,15.87,0Z"/><path class="cls-2" d="M27.64,3.35H8.36A2.57,2.57,0,0,0,5.79,5.92V30.09a2.58,2.58,0,0,0,2.57,2.57H27.64a2.58,2.58,0,0,0,2.57-2.57V5.92A2.57,2.57,0,0,0,27.64,3.35Zm1.59,26.74a1.6,1.6,0,0,1-1.59,1.59H8.36a1.59,1.59,0,0,1-1.58-1.59V5.92A1.59,1.59,0,0,1,8.36,4.33H27.64a1.59,1.59,0,0,1,1.59,1.59Z"/><path class="cls-2" d="M18,10.75a9.87,9.87,0,1,0,9.87,9.87A9.88,9.88,0,0,0,18,10.75Zm0,18.76a8.89,8.89,0,1,1,8.89-8.89A8.89,8.89,0,0,1,18,29.51Z"/><rect class="cls-2" x="6.32" y="9.25" width="23.4" height="0.98"/><circle class="cls-3" cx="12.58" cy="18" r="0.47"/><path class="cls-3" d="M13.36,17.07a.78.78,0,0,1,.78-.78.77.77,0,0,1,.77.78.76.76,0,0,1-.77.77A.77.77,0,0,1,13.36,17.07Z"/><path class="cls-3" d="M14.14,18.6a.47.47,0,1,1-.47.47A.47.47,0,0,1,14.14,18.6Z"/><path class="cls-3" d="M25.93,20.62a7.93,7.93,0,0,1-15.81.94,8.58,8.58,0,0,1,6.57-.94s3.8,1.95,6.52,1Z"/><g class="cls-4"><circle class="cls-5" cx="9.58" cy="6.9" r="1.09"/></g><g class="cls-4"><circle class="cls-5" cx="12.58" cy="6.9" r="1.09"/></g><g class="cls-4"><path class="cls-5" d="M25.93,20.62a7.93,7.93,0,0,1-15.81.94,8.58,8.58,0,0,1,6.57-.94s3.8,1.95,6.52,1Z"/></g><g class="cls-4"><circle class="cls-5" cx="12.58" cy="18" r="0.47"/></g><g class="cls-4"><path class="cls-5" d="M14.61,19.07a.47.47,0,1,1-.47-.47A.47.47,0,0,1,14.61,19.07Z"/></g><g class="cls-4"><path class="cls-5" d="M14.91,17.07a.76.76,0,0,1-.77.77.77.77,0,0,1-.78-.77.78.78,0,0,1,.78-.78A.77.77,0,0,1,14.91,17.07Z"/></g></g></g></svg>