<svg xmlns="http://www.w3.org/2000/svg" viewBox="0 0 36 36"><defs><style>.cls-1{fill:none;}.cls-2{opacity:0.6;}.cls-3{fill:#00b1a9;}.cls-4{fill:#343434;}</style></defs><title>wifi_1</title><g id="Layer_2" data-name="Layer 2"><g id="Layer_1-2" data-name="Layer 1"><rect class="cls-1" width="36" height="36"/><g class="cls-2"><path class="cls-3" d="M32.44,18.42v7A3.49,3.49,0,0,1,29,29H24.84a3.21,3.21,0,0,0,3.21-3.21v-7.6a3.21,3.21,0,0,0-3.21-3.21H29A3.49,3.49,0,0,1,32.44,18.42Z"/></g><path class="cls-4" d="M28.94,14.45H7.34a4,4,0,0,0-4,4v7a4,4,0,0,0,4,4h21.6a4,4,0,0,0,4-4v-7A4,4,0,0,0,28.94,14.45Zm-24.6,11v-7a3,3,0,0,1,3-3h21.6a3,3,0,0,1,3,3v7a3,3,0,0,1-3,3H7.34A3,3,0,0,1,4.34,25.47Z"/><g class="cls-2"><circle class="cls-3" cx="9.12" cy="21.78" r="2.18"/></g><g class="cls-2"><circle class="cls-3" cx="15.82" cy="21.77" r="2.18"/></g><g class="cls-2"><circle class="cls-3" cx="22.52" cy="21.75" r="2.18"/></g><path class="cls-4" d="M18.15,15.42a.54.54,0,0,1-.25-.06.51.51,0,0,1-.18-.68L21,9.14a.49.49,0,0,1,.85.5l-3.25,5.54A.47.47,0,0,1,18.15,15.42Z"/><path class="cls-4" d="M27.33,13.3a.5.5,0,0,1-.48-.4A7.54,7.54,0,0,0,14.62,8.47.49.49,0,1,1,14,7.72a8.51,8.51,0,0,1,13.82,5,.49.49,0,0,1-.4.57Z"/><path class="cls-4" d="M30.32,11.44a.48.48,0,0,1-.47-.35A10.87,10.87,0,0,0,13,5.5a.49.49,0,0,1-.58-.79,11.85,11.85,0,0,1,18.37,6.1.49.49,0,0,1-.33.61A.34.34,0,0,1,30.32,11.44Z"/></g></g></svg>